<svg width="948" height="548" viewBox="0 0 948 548" fill="none" xmlns="http://www.w3.org/2000/svg">
<rect width="112.908" height="112.908" rx="20" transform="matrix(0.866044 -0.499967 0.866044 0.499967 0 273.64)" fill="#EFEFEF"/>
<rect width="112.908" height="112.908" rx="20" transform="matrix(0.866044 -0.499967 0.866044 0.499967 125.406 201.244)" fill="#EFEFEF"/>
<rect width="112.908" height="112.908" rx="20" transform="matrix(0.866044 -0.499967 0.866044 0.499967 250.811 128.847)" fill="#EFEFEF"/>
<rect width="112.908" height="112.908" rx="20" transform="matrix(0.866044 -0.499967 0.866044 0.499967 376.217 56.4504)" fill="#EFEFEF"/>
<rect width="112.908" height="112.908" rx="20" transform="matrix(0.866044 -0.499967 0.866044 0.499967 125.406 346.037)" fill="#EFEFEF"/>
<rect width="112.908" height="112.908" rx="20" transform="matrix(0.866044 -0.499967 0.866044 0.499967 250.811 273.64)" fill="#EFEFEF"/>
<rect width="112.908" height="112.908" rx="20" transform="matrix(0.866044 -0.499967 0.866044 0.499967 376.217 201.244)" fill="#EFEFEF"/>
<rect width="112.908" height="112.908" rx="20" transform="matrix(0.866044 -0.499967 0.866044 0.499967 501.622 128.847)" fill="#EFEFEF"/>
<rect width="112.908" height="112.908" rx="20" transform="matrix(0.866044 -0.499967 0.866044 0.499967 250.811 418.433)" fill="#EFEFEF"/>
<rect width="112.908" height="112.908" rx="20" transform="matrix(0.866044 -0.499967 0.866044 0.499967 376.217 490.83)" fill="#EFEFEF"/>
<rect width="112.908" height="112.908" rx="20" transform="matrix(0.866044 -0.499967 0.866044 0.499967 376.217 346.037)" fill="#EFEFEF"/>
<rect width="112.908" height="112.908" rx="20" transform="matrix(0.866044 -0.499967 0.866044 0.499967 501.622 418.433)" fill="#EFEFEF"/>
<rect width="112.908" height="112.908" rx="20" transform="matrix(0.866044 -0.499967 0.866044 0.499967 501.622 273.64)" fill="#EFEFEF"/>
<rect width="112.908" height="112.908" rx="20" transform="matrix(0.866044 -0.499967 0.866044 0.499967 627.028 346.037)" fill="#EFEFEF"/>
<rect width="112.908" height="112.908" rx="20" transform="matrix(0.866044 -0.499967 0.866044 0.499967 627.028 201.244)" fill="#EFEFEF"/>
<rect width="112.908" height="112.908" rx="20" transform="matrix(0.866044 -0.499967 0.866044 0.499967 752.434 273.64)" fill="#EFEFEF"/>
</svg>
